<svg xmlns="http://www.w3.org/2000/svg" width="400" height="367.754"><g fill-rule="evenodd"><path d="M241.398 43.054c0 .203-.333.368-.741.368-.84 0-2.182.683-2.761 1.406-.214.267-.549.448-.744.402-.532-.127-1.641.431-1.641.825 0 .548-7.441 7.664-7.789 7.449-.369-.228-1.411.731-1.411 1.3 0 .216-.217.394-.483.394-.265 0-.853.345-1.307.768-.453.422-1.064.676-1.357.563-.293-.112-.533-.022-.533.201 0 .433-1.836 2.146-2.3 2.147-.152 0-.276.332-.276.737 0 .404-.165.736-.368.736-.212 0-.368 1.165-.368 2.759 0 1.595.156 2.76.368 2.76.203 0 .368.414.368.92s.166.92.368.92c.203 0 .368.497.368 1.104 0 .607.166 1.104.368 1.104.203 0 .368.497.368 1.104 0 .607.166 1.104.368 1.104.203 0 .368.58.368 1.288 0 .89.168 1.288.543 1.288.407 0 .487.277.322 1.104-.178.891-.096 1.104.424 1.104.547 0 .609.225.409 1.473-.173 1.087-.113 1.449.229 1.38.313-.063.434.299.372 1.103l-.094 1.196h6.926l.242-1.759c.133-.968.801-2.83 1.485-4.14.684-1.31 2.609-5.112 4.278-8.451 4.641-9.284 5.598-9.918 11.984-7.947 1.579.487 4.444 1.242 6.367 1.678 8.955 2.031 10.671 3.073 10.671 6.48 0 2.418.348 2.511 1.413.38.443-.889 1.052-1.82 1.353-2.069.3-.25.546-.645.546-.879 0-.547 4.853-5.372 5.405-5.372 1.097 0 2.323-2.248 2.323-4.26 0-1.098-.166-1.996-.368-1.996-.202 0-.368-.261-.368-.58 0-.753-1.98-2.732-2.732-2.732-.319 0-.58-.166-.58-.368 0-.202-.745-.368-1.656-.368-.911 0-1.656-.166-1.656-.368 0-.202-.727-.368-1.616-.368-1.059 0-1.686-.181-1.818-.523-.123-.321-.495-.447-.959-.325-.531.138-.759.023-.759-.385 0-.365-.204-.505-.545-.374-.336.128-1.102-.371-1.995-1.3-.797-.83-1.691-1.509-1.986-1.509-.294 0-.741-.248-.993-.552-.263-.317-1.066-.552-1.885-.552-.785 0-1.427-.165-1.427-.368 0-.233-2.699-.368-7.36-.368-4.661 0-7.36.135-7.36.368M78.029 164.039c-3.58.06-6.15.254-6.287.474-.126.205-.686.408-1.243.451-1.352.103-5.596 4.147-5.423 5.167.066.394-.057.825-.274.96-.617.381-.745 108.878-.129 109.114.253.097.46.513.46.924 0 .411.166.748.368.748.203 0 .368.187.368.417 0 .44 1.83 2.157 2.3 2.158.152 0 .276.244.276.541 0 .328.216.458.549.33.302-.116.64.025.75.314.133.346.571.47 1.291.364.825-.121 1.09-.015 1.09.436 0 .548 4.215.582 51.794.415 62.068-.219 66.967-.225 79.025-.103l9.384.096v1.563c0 .861-.166 1.564-.368 1.564-.224 0-.368 1.656-.368 4.232 0 2.576-.144 4.232-.368 4.232-.221 0-.368 1.472-.368 3.68s-.148 3.68-.368 3.68c-.224 0-.368 1.648-.368 4.21 0 2.41-.158 4.307-.368 4.437-.206.127-.368 1.844-.368 3.886 0 2.193-.148 3.658-.368 3.658-.203 0-.368.222-.368.493 0 1.04 1.851 1.338 8.471 1.365 3.856.016 6.616.171 6.616.373 0 .21 6.421.345 16.375.345h16.376v-2.035c0-1.484.152-2.094.56-2.251.473-.182.545-1.066.46-5.705-.075-4.12.016-5.563.365-5.779.349-.216.444-1.702.379-5.939-.065-4.189.029-5.69.362-5.801.325-.109.45-1.565.45-5.271 0-4.395.081-5.121.574-5.121.49 0 .537.378.32 2.575-.228 2.316-.188 2.576.399 2.576.584 0 .628.265.416 2.537-.199 2.143-.142 2.573.362 2.767.501.191.557.588.349 2.43-.209 1.85-.158 2.202.321 2.202.471 0 .571.548.571 3.128 0 1.84.151 3.128.367 3.128.205 0 .368.981.368 2.208 0 1.226.164 2.208.368 2.208.213 0 .368 1.165.368 2.759 0 1.595.156 2.76.368 2.76.211 0 .368 1.104.368 2.576 0 1.417.145 2.576.322 2.576.177 0 .422.498.544 1.107l.221 1.107 23.1-.095 23.1-.095.112-2.174c.069-1.343-.048-2.272-.307-2.432-.271-.168-.409-1.54-.39-3.878.02-2.507-.111-3.705-.427-3.9-.329-.203-.432-1.501-.371-4.675.07-3.612-.013-4.431-.465-4.604-.459-.176-.51-.809-.311-3.842.213-3.262.171-3.657-.413-3.881-.59-.227-.626-.625-.388-4.291.235-3.629.199-4.041-.351-4.041-.547 0-.585-.386-.355-3.624.231-3.259.191-3.649-.391-3.873-.585-.224-.623-.632-.394-4.242.223-3.522.181-4.021-.357-4.227-.536-.206-.586-.772-.412-4.738.109-2.477.116-4.131.015-3.676-.389 1.765-.867.7-.867-1.931v-2.76h-2.733c-6.773 0-16.705 1.992-23.684 4.75-1.07.423-2.101.769-2.291.769-.214 0-.385-17.69-.447-46.274-.113-52.106.178-47.147-2.94-50.173-3.231-3.135 6.52-2.819-97.474-3.159-50.678-.166-94.868-.256-98.198-.2m192.924 2.573c5.108 3.039 4.668-2.467 4.668 58.463 0 57.649.12 54.716-2.346 57.322-2.911 3.076 7.588 2.792-102.932 2.792H71.78l-1.392-.771c-2.019-1.119-3.365-2.499-4.272-4.381l-.799-1.656-.109-51.518c-.127-59.398-.295-56.653 3.635-59.451 2.655-1.89-3.07-1.795 102.27-1.712l98.436.077 1.404.835m-20.281 6.047c-.488.488-.583 2.093-.16 2.717.989 1.463 3.156 1.169 3.57-.484.487-1.938-2.047-3.597-3.41-2.233m6.423.231c-.807.892-.768 1.593.141 2.57 1.879 2.017 4.818-.405 3.153-2.599-.64-.843-2.52-.827-3.294.029m6.77-.145c-.59.712-.345 2.806.383 3.261.881.551 2.512-.011 2.974-1.024.867-1.903-2.031-3.834-3.357-2.237" fill="#413e7b"/><path d="M242.134 42.318c0 .203.249.368.552.368.304 0 .552-.165.552-.368 0-.202-.248-.368-.552-.368-.303 0-.552.166-.552.368m33.119 8.306c0 .391 1.137 1.351 1.349 1.139.116-.115-.046-.466-.359-.78-.584-.584-.99-.731-.99-.359m7.062 4.601c.073.218.289.396.482.396.192 0 .409-.178.481-.396.073-.217-.144-.395-.481-.395-.338 0-.554.178-.482.395m15.753.198c0 .386.201.512.582.366.32-.123.762-.223.981-.223.636 0-.036-.499-.836-.621-.467-.071-.727.1-.727.478m-18.031.695c0 .303.165.552.368.552.202 0 .368-.249.368-.552 0-.304-.166-.552-.368-.552-.203 0-.368.248-.368.552m20.699-.309c-.641.259-.576.861.092.861a.554.554 0 0 0 .552-.552c0-.304-.041-.539-.092-.523a15.04 15.04 0 0 0-.552.214m-21.895.746c-.765.2-.866.851-.132.851.282 0 .608-.249.725-.552.116-.304.176-.533.131-.51-.044.024-.37.119-.724.211m23.142.299c.116.303.36.552.54.552.181 0 .329-.249.329-.552a.548.548 0 0 0-.541-.552c-.329 0-.457.215-.328.552m-83.4 4.784c0 .303.166.552.368.552.203 0 .368-.249.368-.552 0-.304-.165-.552-.368-.552-.202 0-.368.248-.368.552m93.469 3.522c0 .588 1.099 1.575 1.397 1.255.142-.153.051-.352-.202-.443-.253-.09-.46-.399-.46-.685 0-.287-.165-.522-.367-.522-.203 0-.368.178-.368.395m-13.054 2.846c-.233.233.14.807.524.807.169 0 .392-.221.496-.49.175-.457-.63-.707-1.02-.317m15.997 3.536c0 .321.263.583.583.583.32 0 .517-.197.437-.437-.227-.682-1.02-.795-1.02-.146m-16.658.611c.213.814.835.96.835.195 0-.281-.23-.6-.51-.708-.358-.137-.455.016-.325.513m17.394.847c0 .076.249.345.552.597.452.375.552.35.552-.139 0-.328-.248-.597-.552-.597-.303 0-.552.063-.552.139m-34.87 1.696c-.559.895-.571 1.109-.062 1.109.51 0 1.446-.936 1.446-1.446 0-.659-.898-.44-1.384.337m14.686-.141c-.273.309-.402.658-.285.775.256.256 1.334-.586 1.334-1.042 0-.488-.492-.363-1.049.267m-1.159 2.131c0 .281.23.6.511.708.358.137.455-.016.325-.513-.213-.814-.836-.96-.836-.195m22.447 3.167c0 1.012.136 1.84.303 1.84.166 0 .34-.828.386-1.84.05-1.093-.073-1.84-.302-1.84-.219 0-.387.801-.387 1.84m-31.922 1.654c-.553.628-.601 1.29-.092 1.29.202 0 .368-.249.368-.552 0-.304.165-.552.368-.552a.37.37 0 0 0 .368-.368c0-.518-.47-.434-1.012.182m6.991.023c-.542.589-.587.899-.131.899.314 0 .902-1.108.692-1.304-.055-.052-.308.131-.561.405m.711 1.083c-.23.506-.328.92-.217.92.355 0 1.254-1.037 1.254-1.446 0-.719-.611-.409-1.037.526m-5.954.92c0 .202.248.368.552.368.303 0 .551-.166.551-.368 0-.203-.248-.368-.551-.368-.304 0-.552.165-.552.368m4.306.54c.691.949 1.213 1.192 1.213.564a.368.368 0 0 0-.368-.368c-.202 0-.368-.249-.368-.552a.562.562 0 0 0-.569-.552c-.489 0-.476.128.092.908m25.188 1.257c-.273.173-.438.614-.368.98.2 1.039.795.832.844-.293.025-.557.039-1.01.032-1.007l-.508.32m-27.383.319c-.357.081-.554.3-.438.487.275.446 1.638.441 1.638-.006 0-.48-.435-.654-1.2-.481m-59.517 7.971c0 .343 4.046 4.264 4.4 4.264.722 0 .383-.511-1.632-2.463-1.738-1.683-2.768-2.354-2.768-1.801m83.256.092c-.45.182-.663 1.228-.249 1.228.273 0 1.261-.988 1.261-1.261 0-.243-.356-.232-1.012.033m-43.79 1.493c-.517.185-.639 1.943-.135 1.943.179 0 .413-.455.52-1.012.223-1.16.227-1.149-.385-.931m.323 7.555c-.071 5.894-.317 7.042-1.543 7.197-.493.063-2.883.449-5.311.86-2.429.41-5.824.973-7.544 1.252-1.721.278-4.122.696-5.336.928-1.214.232-3.036.563-4.048.736-1.012.172-2.668.474-3.68.67-3.626.701-3.316.854-3.277-1.616.019-1.214.102-3.063.184-4.109.082-1.045.035-2.015-.104-2.154-.401-.402-2.138 1.548-2.138 2.399 0 .423-.207.742-.46.709-.936-.121-1.418.038-1.196.396.125.202-.041.368-.368.368-.328 0-.507.144-.398.32.109.176-.212.797-.714 1.38-.501.582-.912 1.266-.912 1.519 0 .253-.359.46-.798.46-.438 0-.696.101-.574.224.246.245-.062.669-1.848 2.544-.658.691-1.196 1.356-1.196 1.478 0 .501-1.101 1.274-1.814 1.274-.419 0-.762.166-.762.368 0 .203-.331.368-.736.368-.405 0-.736.166-.736.368 0 .203-.331.368-.736.368-.405 0-.736.166-.736.368 0 .203-.331.368-.736.368-.405 0-.736.166-.736.368 0 .203-.331.368-.736.368-.405 0-.736.166-.736.368 0 .202-.331.368-.736.368-.405 0-.736.166-.736.368 0 .202-.423.368-.941.368-.534 0-.844.159-.715.368.125.202-.125.368-.556.368-.431 0-1.034.25-1.34.555-.305.306-.707.462-.893.347-.186-.115-.339-.034-.339.18 0 .215-.396.39-.88.39s-.976.248-1.093.552c-.116.304-.548.552-.959.552-.411 0-.747.166-.747.368 0 .202-.414.368-.92.368s-.92.165-.92.368c0 .202-.341.368-.758.368s-.655.165-.53.368c.129.209-.188.368-.736.368-.549 0-.866.158-.736.368.125.202-.031.368-.346.368-.316 0-.574.146-.574.325 0 .179-.331.412-.736.517a.98.98 0 0 0-.736.942c0 .551-.195.712-.736.608-.578-.112-.736.056-.736.779 0 .52-.16.821-.368.693-.209-.129-.368.18-.368.714 0 .592-.205.942-.552.942a.547.547 0 0 0-.552.54c0 .329.216.458.552.329.304-.117.552-.047.552.156 0 .202-.248.463-.552.58-.304.116-.552.465-.552.775s-.166.563-.368.563c-.202 0-.368.755-.368 1.678 0 1.025-.143 1.589-.368 1.45s-.368.426-.368 1.451c0 .922-.132 1.677-.293 1.677-.161 0-.334.616-.385 1.369-.05.753-.208 1.456-.351 1.564-.419.315-.497 1.192-.084.937.207-.129.377.025.377.34 0 .316-.165.574-.368.574-.202 0-.368.414-.368.92s-.165.92-.368.92c-.202 0-.368.911-.368 2.024s-.165 2.024-.368 2.024c-.207 0-.368 1.042-.368 2.392 0 1.349-.16 2.392-.368 2.392-.202 0-.368.662-.368 1.472 0 .809-.165 1.471-.368 1.471-.202 0-.368.125-.368.276 0 .152 17.263.276 38.363.276 43.261 0 39.48-.264 42.686 2.988 3.534 3.584 3.22-1.325 3.22 50.366 0 30.645.122 45.45.375 45.45.207 0 1.394-.413 2.64-.919 1.245-.506 2.639-.92 3.098-.92.46 0 .938-.166 1.063-.368.125-.203.551-.368.946-.368.396 0 1.007-.148 1.359-.329.823-.423 4.761-1.143 6.251-1.143.633 0 1.238-.141 1.344-.312.106-.171 1.731-.424 3.61-.562 1.879-.138 4.369-.34 5.533-.449l2.116-.197v1.106c0 .608.165 1.209.368 1.334.239.148.368-1.898.368-5.866 0-3.817-.138-6.094-.368-6.094-.546 0-.459-3.22.092-3.404.364-.121.46-8.11.46-38.301 0-20.982.055-37.983.122-37.78.068.203.44.368.828.368.431 0 .706.255.706.655 0 .36.331.893.736 1.185.404.292.736.664.736.827 0 .65 3.339 3.589 4.077 3.589.534 0 .72.17.581.533-.127.331.091.627.576.781.429.136 1.115.559 1.522.939.408.38 1.049.691 1.424.691s1.038.331 1.472.736c.506.471 1.299.736 2.204.736.86 0 1.49.198 1.608.506.293.762 5.144.808 5.434.051.117-.306.514-.557.88-.557s.905-.331 1.197-.736c.292-.405.825-.736 1.185-.736.42 0 .655-.277.655-.775 0-.538.169-.711.552-.564.336.129.552.001.552-.329 0-.297.165-.54.368-.54.202 0 .368-.258.368-.574 0-.315.165-.471.368-.346.219.135.368-.303.368-1.082 0-.721.129-1.31.287-1.31.159 0 .325-.446.37-.991.045-.545.206-1.084.356-1.196.429-.32.522-1.208.1-.946-.208.128-.377.067-.377-.135 0-.203.165-.471.368-.596.69-.426.47-10.737-.235-11.008-.548-.21-.543-.295.057-.959.377-.415.477-.728.235-.728-.234 0-.425-.331-.425-.736 0-.405-.166-.736-.368-.736-.203 0-.368-.331-.368-.736 0-.405-.166-.736-.368-.736-.203 0-.381-.373-.397-.828-.016-.455-.113-.621-.215-.368-.332.824-.88.484-.657-.407.137-.544.002-1.083-.361-1.446-.318-.318-.578-.802-.578-1.075 0-.274-.331-.736-.736-1.028-.405-.292-.736-.788-.736-1.104 0-.315-.331-.812-.736-1.104-.405-.292-.736-.825-.736-1.185 0-.36-.166-.655-.368-.655-.203 0-.368-.331-.368-.736 0-.404-.166-.736-.368-.736-.203 0-.368-.404-.368-.898s-.166-1.001-.368-1.126c-.203-.125-.368-.595-.368-1.044 0-.449-.331-1.056-.736-1.348-.405-.291-.736-.716-.736-.944 0-.782-1.162-2.743-1.501-2.534-.186.116-.339-.106-.339-.493s-.497-1.223-1.104-1.858c-.607-.636-1.104-1.534-1.104-1.998 0-.463-.331-1.08-.736-1.372-.405-.292-.736-.936-.736-1.431s-.102-.797-.228-.672c-.394.394-1.17-.675-1.301-1.792-.129-1.096-1.421-2.729-2.159-2.729-.242 0-.314-.301-.176-.736.17-.536.066-.736-.382-.736-.387 0-.54-.198-.412-.533.137-.356.028-.465-.328-.329-.396.152-.534-.092-.534-.948 0-1.157-2.731-4.446-3.691-4.446-.22 0-.312-.142-.204-.316.107-.174-1.161-.349-2.818-.389-1.658-.04-3.21-.236-3.45-.435-.295-.245-.508-.208-.656.113-.174.376-.265.379-.435.015-.118-.253-.78-.46-1.472-.46-.691 0-1.257-.165-1.257-.367 0-.203-.248-.368-.552-.368-.304 0-.552-.166-.552-.368 0-.203-.321-.368-.714-.368-.393 0-.817-.166-.942-.368-.125-.203-.576-.368-1.002-.368-.952 0-3.598-1.135-3.598-1.543 0-.164-.248-.297-.552-.297-.303 0-.552-.198-.552-.439s-.243-.117-.54.276c-.665.879-.769 6.613-.147 8.149 1.603 3.966 3.105 6.669 4.216 7.588.69.571 1.255 1.223 1.255 1.448 0 .225.31.751.69 1.169.379.418 1.145 2.167 1.703 3.888 1.228 3.785 1.401 3.998 4.315 5.317 1.269.574 6.169 2.924 10.889 5.223 4.72 2.298 8.71 4.179 8.867 4.179 1.124 0 2.695 1.344 3.368 2.881.414.945 1.05 2.381 1.412 3.191.67 1.496.883 2.058 2.51 6.624 4.811 13.499-.296 18.246-11.675 10.854a65.987 65.987 0 0 0-2.722-1.679c-.586-.331-1.463-1-1.949-1.485-.485-.485-.999-.884-1.141-.886-.143-.001-1.313-.995-2.6-2.207-1.287-1.213-2.476-2.205-2.643-2.205-.166 0-.408-.332-.536-.736-.129-.405-.46-.736-.736-.736-.277 0-.608-.332-.736-.736-.129-.405-.471-.736-.761-.736-.29 0-.527-.152-.527-.338 0-2.078-7.741-7.753-8.625-6.322-.41.662-8.445.908-9.623.295-5.235-2.727-11.593-17.029-9.517-21.405.606-1.276 5.017-5.349 5.792-5.349 2.109 0 2.861-2.274 1.734-5.24-1.347-3.543-.072-8.662 2.963-11.892.949-1.01.906-1.635-.112-1.638-.455-.002-1.904-.332-3.219-.733-1.316-.402-2.94-.732-3.61-.733-.717-.002-1.124-.154-.99-.371.135-.219-.339-.379-1.174-.394-1.12-.021-1.254-.09-.666-.342.551-.237.286-.323-1.051-.342-1.459-.021-1.747-.131-1.569-.597.132-.344.067-.477-.164-.334-.211.13-.664-.073-1.007-.451-1.152-1.267-2.679-2.028-3.603-1.796-.76.19-.886.09-.886-.705 0-.51-.142-.927-.315-.927-.173 0-.341 2.194-.374 4.876m3.265-3.93c0 .391 1.137 1.351 1.349 1.139.116-.115-.046-.466-.359-.779-.584-.585-.99-.732-.99-.36m34.959.894c0 .202.248.368.552.368.303 0 .552-.166.552-.368 0-.202-.249-.368-.552-.368-.304 0-.552.166-.552.368m-69.55.92c0 .304.166.552.368.552.203 0 .368-.248.368-.552 0-.304-.165-.552-.368-.552-.202 0-.368.248-.368.552m.982 1.533c-.382.382-.289 1.595.122 1.595.203 0 .368-.414.368-.92 0-.964-.085-1.08-.49-.675m61.576 1.595c0 .202.424.368.942.368.534 0 .843-.159.714-.368-.125-.203-.549-.368-.942-.368-.393 0-.714.165-.714.368M73.965 163.753c0 .26 1.671.377 4.968.346 2.733-.025 4.886-.18 4.784-.345-.288-.466-9.752-.467-9.752-.001m10.304 0c0 .203.238.368.53.368.292 0 .632-.165.758-.368.125-.202-.114-.368-.531-.368-.416 0-.757.166-.757.368m68.261 0c.125.203.476.368.779.368.304 0 .45-.165.325-.368-.125-.202-.476-.368-.78-.368-.303 0-.449.166-.324.368m2.024.024c0 .189.755.344 1.677.344.923 0 1.588-.146 1.478-.324-.271-.438-3.155-.456-3.155-.02m4.048-.024c0 .203.331.368.736.368.404 0 .736-.165.736-.368 0-.202-.332-.368-.736-.368-.405 0-.736.166-.736.368m17.096.024c-.129.21 3.092.344 8.251.344 5.396 0 8.549-.137 8.698-.378.157-.255-2.53-.367-8.251-.344-4.829.019-8.577.182-8.698.378m-104.363 3.064a8.15 8.15 0 0 0-4.268 3.472l-.826 1.352-.002 53.623c-.002 59.919-.229 54.554 2.427 57.211 2.524 2.523-6.306 2.322 101.526 2.322 105.656 0 99.121.14 101.832-2.181 3.099-2.652 2.844 2.464 2.853-57.269l.008-53.009-.914-1.821c-.966-1.924-2.577-3.262-4.641-3.854-2.084-.598-196.313-.447-197.995.154m182.776 5.614c1.173 1.265 1.142 2.366-.102 3.61-1.795 1.796-4.477.696-4.503-1.847-.027-2.539 2.862-3.645 4.605-1.763m6.754-.064c.824.824.575 3.188-.415 3.95-1.787 1.375-4.332.141-4.332-2.1 0-2.353 3.054-3.543 4.747-1.85m6.181-.357c.434.303.9 1.055 1.035 1.67.713 3.249-4.062 4.544-5.24 1.422-.947-2.51 1.972-4.657 4.205-3.092m-26.457 42.207c.567.568.567 1.861 0 2.429-.643.643-162.964.643-163.606 0-.651-.651-.537-2.043.202-2.473.999-.582 162.821-.538 163.404.044m-63.802 36.948c.759.292.758 2.125-.003 2.885-.866.866-99.334.704-99.883-.164-.517-.818-.434-1.713.218-2.366.591-.591 98.148-.938 99.668-.355m129.829 16.525c-.039.463.175.936.475 1.051.386.148.545-.044.545-.66 0-1.154-.928-1.51-1.02-.391m1.02 7.64c0 .528.129 1.039.287 1.137.347.215.311-1.498-.039-1.849-.137-.136-.248.184-.248.712m-114.168 11.95c-.733.167-.882.831-.184.823.662-.008 1.516-.608 1.144-.804-.174-.091-.606-.099-.96-.019m-17.939 2.279c0 .393.166.816.368.941.209.129.368-.18.368-.714 0-.518-.166-.942-.368-.942-.202 0-.368.322-.368.715m83.533 2.251c0 .619.143 1.037.318.929.297-.183.135-2.055-.177-2.055-.078 0-.141.507-.141 1.126m50.046-.184c0 .534.159.843.368.714.202-.125.368-.549.368-.941 0-.393-.166-.715-.368-.715-.203 0-.368.424-.368.942m-118.492.898c0 .203.249.368.552.368.304 0 .552-.165.552-.368 0-.202-.248-.368-.552-.368-.303 0-.552.166-.552.368m-13.615.92c0 .304.148.552.329.552.18 0 .423-.248.54-.552.129-.336.001-.552-.329-.552a.548.548 0 0 0-.54.552m34.083.12c-.162.471-.198.954-.078 1.073.381.382.65-.181.51-1.069l-.136-.86-.296.856m-29.483 3.386c-.687.26-.692.297-.076.548.712.29 1.152.064.942-.486-.072-.187-.461-.216-.866-.062m28.519 4.796c0 .656.153 1.031.368.898.202-.125.368-.632.368-1.126 0-.494-.166-.898-.368-.898-.203 0-.368.507-.368 1.126m48.206 1.266c0 .506.165.92.368.92.202 0 .368-.414.368-.92s-.166-.92-.368-.92c-.203 0-.368.414-.368.92m3.091 1.934c.02.522.244 1.018.497 1.102.636.212.6-1.616-.037-1.86-.343-.131-.485.104-.46.758m-51.949 4.322c-.042.506.088.92.288.92.2 0 .364-.414.364-.92s-.13-.92-.288-.92c-.158 0-.322.414-.364.92m48.122 5.519c0 .709.165 1.288.368 1.288.202 0 .368-.579.368-1.288 0-.708-.166-1.288-.368-1.288-.203 0-.368.58-.368 1.288m5.519 1.288c0 .405.166.736.368.736.203 0 .368-.331.368-.736 0-.404-.165-.736-.368-.736-.202 0-.368.332-.368.736m48.402-.26c-.157.363-.183.763-.057.89.374.373.675-.152.503-.877-.152-.643-.172-.643-.446-.013m-103.009 1.581c-.391 1.019-.25 1.611.33 1.388.601-.23.753-1.437.222-1.765-.181-.112-.429.058-.552.377m55.343 3.647c0 .304.166.552.368.552.203 0 .368-.248.368-.552 0-.303-.165-.552-.368-.552-.202 0-.368.249-.368.552m48.207 3.842c0 .619.165 1.126.368 1.126.202 0 .367-.404.367-.898s-.165-1.001-.367-1.126c-.215-.133-.368.242-.368.898m-66.606.037c0 .251 1.85.366 5.336.333 2.935-.028 5.336-.201 5.336-.383 0-.183-2.401-.333-5.336-.333-3.454 0-5.336.135-5.336.383" fill="#f4f4f5"/><path d="M243.238 42.318c0 .203.331.368.736.368.405 0 .736-.165.736-.368 0-.202-.331-.368-.736-.368-.405 0-.736.166-.736.368m8.096 0c0 .203.331.368.736.368.405 0 .736-.165.736-.368 0-.202-.331-.368-.736-.368-.405 0-.736.166-.736.368m11.867 3.934c.355.092.644.322.644.509 0 .188.186.341.413.341.286 0 .272-.17-.045-.552-.252-.303-.727-.533-1.057-.509-.505.036-.498.069.045.211m-30.017 1.26c-.571.622-.951 1.219-.845 1.325.191.191.505-.089 1.849-1.654 1.074-1.251.176-.957-1.004.329m44.277 8.216c0 .518.165.942.368.942.202 0 .368-.322.368-.715 0-.392-.166-.816-.368-.941-.209-.129-.368.18-.368.714m-56.615 1.909c-.476.507-.775 1.011-.666 1.12.199.199 2.083-1.508 2.083-1.887 0-.433-.592-.113-1.417.767m21.52 2.769c-1.086.895-2.149 2.642-4.645 7.636a1792.808 1792.808 0 0 1-4.365 8.683c-1.452 2.843-1.977 5.706-1.29 7.03.644 1.242.632 1.449-.051.882-.304-.252-.552-.681-.552-.952 0-.878-1.388-1.272-4.221-1.199-2.098.054-4.309.679-2.403.679.202 0 .368.408.368.908 0 .656.153.85.552.697.304-.117.552-.029.552.195s-.24.408-.534.408c-.636 0 .147 2.263.865 2.502.223.074.405.618.405 1.208s.166 1.073.368 1.073c.202 0 .368.332.368.736 0 .503.245.736.775.736.537 0 .711.17.565.55-.116.302.046.757.359 1.012 2.147 1.742 4.557 4.284 4.557 4.807 0 .378.289.623.736.623.404 0 .736.166.736.368 0 .202.331.368.736.368.404 0 .736.166.736.368 0 .202.331.368.735.368.576 0 .736.245.736 1.126 0 .656.154 1.031.368.898.209-.129.368.18.368.714 0 .518-.161.942-.359.942-.203 0-.377 1.397-.399 3.22a517.646 517.646 0 0 1-.101 5.611c-.068 2.681-.389 2.504 3.251 1.8 1.012-.196 2.668-.498 3.68-.67 1.012-.173 2.834-.504 4.048-.736 1.214-.232 3.615-.65 5.336-.928 1.72-.279 5.115-.842 7.544-1.252 2.428-.411 4.818-.797 5.311-.86 1.238-.157 1.477-1.312 1.541-7.457.037-3.543-.076-5.178-.364-5.274-.629-.21-.5-1.592.197-2.102.569-.415.561-.527-.108-1.512-.7-1.031-1.818-3.296-2.667-5.405-.228-.566-.415-1.426-.415-1.91 0-.485-.165-.983-.368-1.108-.476-.295-.489-10.219-.015-10.694 1.23-1.229.899-8.936-.42-9.783-1.039-.667-4.596-1.848-7.079-2.349a90.089 90.089 0 0 1-9.277-2.406c-3.244-1.023-4.484-.932-6.16.449m-23.783 2.498c0 .393.166.816.368.941.209.129.368-.18.368-.714 0-.518-.165-.941-.368-.941-.202 0-.368.321-.368.714m1.472 6.093c0 .304.166.552.368.552.203 0 .368-.248.368-.552 0-.303-.165-.552-.368-.552-.202 0-.368.249-.368.552m95.676 4.784c0 .304.269.552.597.552.489 0 .515-.1.139-.552-.252-.304-.52-.552-.597-.552-.076 0-.139.248-.139.552M287.62 85.158c.123.32.385.583.583.583.483 0 .18-.837-.37-1.02-.269-.09-.351.078-.213.437m2.23-.276c-.447.447-.255.839.306.624.304-.117.552-.36.552-.541 0-.386-.507-.435-.858-.083m19.978 12.649c-.852.818-1.462 1.574-1.356 1.68.178.178 3.212-2.667 3.212-3.012 0-.356-.39-.077-1.856 1.332m-40.095 1.641c0 .304.166.552.368.552.203 0 .368-.248.368-.552 0-.304-.165-.552-.368-.552-.202 0-.368.248-.368.552m35.327 2.253c0 .489.1.514.552.139.303-.252.552-.521.552-.597 0-.077-.249-.139-.552-.139-.304 0-.552.269-.552.597m-15.916 4.065c-.354.096-.644.36-.644.585 0 .225-.322.752-.716 1.172-3.035 3.23-4.31 8.349-2.963 11.892 1.127 2.966.375 5.24-1.734 5.24-.775 0-5.186 4.073-5.792 5.349-2.076 4.376 4.282 18.678 9.517 21.405 1.178.613 9.213.367 9.623-.295.884-1.431 8.625 4.244 8.625 6.322 0 .186.237.338.527.338.29 0 .632.331.761.736.128.404.459.736.736.736.276 0 .607.331.736.736.128.404.37.736.536.736.167 0 1.356.992 2.643 2.205 1.287 1.212 2.457 2.206 2.6 2.207.142.002.656.401 1.141.886.486.485 1.363 1.154 1.949 1.485a65.987 65.987 0 0 1 2.722 1.679c11.379 7.392 16.486 2.645 11.675-10.854-1.627-4.566-1.84-5.128-2.51-6.624-.362-.81-.998-2.246-1.412-3.191-.673-1.537-2.244-2.881-3.368-2.881-.157 0-4.147-1.881-8.867-4.179-4.72-2.299-9.62-4.649-10.889-5.223-2.914-1.319-3.087-1.532-4.315-5.317-.558-1.721-1.324-3.47-1.703-3.888-.38-.418-.69-.944-.69-1.169 0-.225-.565-.877-1.255-1.448-1.111-.919-2.613-3.622-4.216-7.588-.515-1.272-.553-7.491-.049-7.802.525-.325.456-1.927-.092-2.15-.346-.14-.323-.283.092-.577.491-.347.491-.391 0-.401a9.114 9.114 0 0 1-1.288-.154c-.404-.08-1.025-.065-1.38.032m11.868 6.746c0 .202.248.367.552.367.304 0 .552-.165.552-.367 0-.203-.248-.368-.552-.368-.304 0-.552.165-.552.368m-99.466 19.993c-.103.27.045.491.329.491a.506.506 0 0 0 .517-.491c0-.269-.148-.49-.329-.49-.18 0-.413.221-.517.49m126.697 9.261c0 .304.165.552.368.552.202 0 .368-.248.368-.552 0-.303-.166-.552-.368-.552-.203 0-.368.249-.368.552m-132.008 7.57c-.029.39.102.71.292.71.419 0 .462-.989.054-1.241-.161-.099-.316.14-.346.531m139.81 7.428c-.343.413-.362.648-.068.83.545.336.823.017.67-.769-.112-.575-.172-.581-.602-.061m-142.117 3.402c0 .303.166.552.368.552.203 0 .368-.249.368-.552 0-.304-.165-.552-.368-.552-.202 0-.368.248-.368.552m18.859 4.139c10.272.055 27.08.055 37.351 0 10.271-.054 1.868-.098-18.675-.098s-28.947.044-18.676.098m57.472.64c.794.283 1.905.855 2.469 1.271 1.391 1.029 1.731.963.437-.085-1.226-.993-2.846-1.74-3.725-1.717-.345.008.024.247.819.531m-198.212 1.594c-.347.138 43.985.25 98.514.25 54.53 0 98.861-.112 98.515-.25-.347-.137-44.679-.25-98.515-.25s-98.168.113-98.514.25m204.001 3.618 1.045 2.072v45.406c0 37.674.084 45.438.494 45.595.272.105 1.39-.171 2.484-.612 1.094-.441 2.486-.929 3.094-1.084.777-.198.877-.292.339-.319-.42-.02-1.783.377-3.028.883-1.246.506-2.433.919-2.64.919-.253 0-.375-14.805-.375-45.45 0-49.719.096-47.362-1.997-49.099-.254-.211.009.549.584 1.689m-25.45 1.963c-.376.24-.082.28.92.127 1.819-.279 2.129-.492.705-.484-.59.003-1.321.164-1.625.357m-184.55 53.731c0 29.448.044 41.495.097 26.771.054-14.724.054-38.818 0-53.542-.053-14.724-.097-2.677-.097 26.771m188.554-51.23c-.121.731-.067 1.074.137.87.185-.185.275-.729.2-1.208-.116-.736-.168-.684-.337.338m20.462 51.23c0 28.638.044 40.354.097 26.035.053-14.319.053-37.751 0-52.07-.053-14.319-.097-2.603-.097 26.035m-10.905-48.849c.186.186.729.276 1.208.2.737-.116.685-.167-.337-.337-.731-.121-1.075-.067-.871.137m41.637 69.272c0 .911.165 1.656.368 1.656.202 0 .368-.745.368-1.656 0-.911-.166-1.656-.368-1.656-.203 0-.368.745-.368 1.656m-4.784 11.625c-1.203.178-.775.232 1.563.198 1.771-.026 3.22-.165 3.22-.31.001-.302-2.366-.247-4.783.112m-6.426.681c-.128.206.346.26 1.174.132 1.848-.285 1.996-.478.367-.478-.73 0-1.424.155-1.541.346m-4.246.758-.92.294h.92c.506 0 1.334-.132 1.84-.294l.92-.295h-.92c-.506 0-1.334.133-1.84.295m-3.495.736c-.262.423.334.423 1.655 0 .879-.282.868-.297-.254-.332-.646-.02-1.276.129-1.401.332m18.951.714c0 .619.165 1.126.368 1.126.202 0 .368-.405.368-.899s-.166-1-.368-1.125c-.215-.133-.368.241-.368.898m1.84 16.559c0 .417.165.758.368.758.202 0 .368-.239.368-.53 0-.292-.166-.633-.368-.758-.203-.125-.368.113-.368.53m-34.936 4.961-1.265 1.501 1.431-1.368c.787-.752 1.356-1.427 1.265-1.5-.091-.073-.735.542-1.431 1.367m-4.255 2.421c-.464.199-.532.316-.184.316.304 0 .883-.142 1.288-.316.464-.2.532-.317.184-.317-.303 0-.883.143-1.288.317m-92.916 3.311c0 .608.166 1.104.368 1.104.202 0 .368.58.368 1.288 0 .709.166 1.288.368 1.288.202 0 .368.332.368.736 0 .405.225.736.501.736.338 0 .443.304.322.933-.214 1.122.787 2.377 1.902 2.385.643.004.679.069.219.39-.413.286-.157.352 1.012.26 1.087-.086 1.564.02 1.564.346 0 .757 1.838.584 1.851-.174.011-.613.035-.613.501 0 .664.876 1.115.809 1.68-.246.264-.494.695-.807.966-.703.527.202 2.361-1.423 2.361-2.092 0-.223.166-.304.368-.179.209.129.368-.18.368-.714 0-.692.193-.942.727-.942.658 0 1.091-.648 2.52-3.772.07-.151-.136-.276-.456-.276-.321 0-.583-.165-.583-.368 0-.202.258-.367.574-.367.316 0 .471-.166.346-.368-.141-.23-3.622-.368-9.221-.368h-8.994v1.103m83.569 1.196c.068 2.887.623 3.657.663.92.021-1.435-.119-2.483-.331-2.483-.203 0-.352.703-.332 1.563m50.255 3.466c-.382.381-.288 1.594.123 1.594.202 0 .368-.414.368-.92 0-.963-.085-1.08-.491-.674m-49.639 1.076c.093.487.316.886.494.886.522 0 .375-1.374-.169-1.583-.354-.136-.446.062-.325.697m-1.388 7.51c0 .607.165 1.104.368 1.104.202 0 .368-.497.368-1.104 0-.607-.166-1.104-.368-1.104-.203 0-.368.497-.368 1.104m52.254 8.464c0 .404.165.736.368.736.202 0 .368-.332.368-.736 0-.405-.166-.736-.368-.736-.203 0-.368.331-.368.736m-101.196 1.472c0 .404.165.736.368.736.202 0 .368-.332.368-.736 0-.405-.166-.736-.368-.736-.203 0-.368.331-.368.736m48.206 1.472c0 .607.165 1.103.368 1.103.202 0 .368-.496.368-1.103 0-.608-.166-1.104-.368-1.104-.203 0-.368.496-.368 1.104m53.726 4.967c0 .304.165.552.368.552.202 0 .368-.248.368-.552 0-.303-.166-.552-.368-.552-.203 0-.368.249-.368.552" fill="#f0b0b9"/><path d="M244.71 42.318c0 .218 1.349.368 3.312.368 1.963 0 3.312-.15 3.312-.368s-1.349-.368-3.312-.368c-1.963 0-3.312.15-3.312.368m11.408.736c0 .203.331.368.736.368.405 0 .736-.165.736-.368 0-.202-.331-.368-.736-.368-.405 0-.736.166-.736.368m3.312.92c.252.304.732.552 1.067.552.336 0 .849.331 1.141.736.52.723 1.471 1.013 1.471.45 0-.459-1.429-1.554-2.028-1.554-.301 0-.547-.165-.547-.368 0-.202-.352-.368-.781-.368-.653 0-.706.091-.323.552m-25.209 3.13c-.957 1.057-.532 1.175.475.133.462-.479.695-.871.517-.871-.179 0-.625.332-.992.738m29.02-.186c.303.304.741.552.972.552.257 0 .206-.215-.131-.552-.304-.303-.741-.552-.973-.552-.257 0-.205.215.132.552m-33.526 4.068c-1.623 1.671-2.332 2.74-1.817 2.74.184 0 4.669-4.438 4.669-4.62 0-.611-1.203.183-2.852 1.88m40.386-1.676c0 .202.249.368.552.368.304 0 .552-.166.552-.368 0-.202-.248-.368-.552-.368-.303 0-.552.166-.552.368m3.312.736c0 .202.248.368.552.368.304 0 .552-.166.552-.368 0-.202-.248-.368-.552-.368-.304 0-.552.166-.552.368m-48.727 5.06a1.28 1.28 0 0 1-.614.322l-.705.092c-.594.074-.422 1.15.184 1.15.304 0 .552-.145.552-.322 0-.177.538-.588 1.196-.912.942-.464 1.033-.591.429-.598-.421-.004-.891.116-1.042.268m52.775 1.902c0 .185-.096.641-.214 1.012-.196.616-.165.613.368-.041.666-.818.747-1.309.214-1.309-.203 0-.368.152-.368.338m-34.69 2.547c-1.75 1.153-2.254 1.918-5.372 8.156a770.744 770.744 0 0 1-4.278 8.451c-.684 1.31-1.352 3.172-1.485 4.14l-.242 1.759h-3.523c-1.937 0-3.407.116-3.265.257.141.142 1.409.218 2.818.169 2.629-.09 4.039.328 4.039 1.198 0 .271.248.7.552.952.683.567.695.36.051-.882-.687-1.324-.162-4.187 1.29-7.03.62-1.214 2.584-5.122 4.365-8.683 4.467-8.936 5.708-9.874 10.669-8.06 1.108.404 2.347.719 2.755.699 1.281-.064-4.336-1.765-5.883-1.782-.833-.01-1.914.275-2.491.656m10.421 1.696c1.403.516 4.702 1.144 4.398.836-.237-.239-4.706-1.378-5.274-1.343-.236.014.158.242.876.507m6.529 1.511c1.578.425 5.58 1.954 5.602 2.141.124 1.042 1.069 2.796 1.082 2.007.032-1.927-4.67-4.792-7.711-4.7-.563.017-.163.232 1.027.552m6.412 7.155c-.012 1.113.073 1.776.189 1.472.115-.303.392-.676.615-.828.291-.199.286-.353-.019-.552-.232-.152-.499-.69-.593-1.196-.094-.506-.181-.009-.192 1.104m-45.342.552c0 .304.166.552.368.552.203 0 .368-.248.368-.552 0-.303-.165-.552-.368-.552-.202 0-.368.249-.368.552m.736 2.208c0 .304.166.552.368.552.203 0 .368-.248.368-.552 0-.303-.165-.552-.368-.552-.202 0-.368.249-.368.552m.736 2.392c0 .202.248.368.552.368.304 0 .552-.166.552-.368 0-.202-.248-.368-.552-.368-.304 0-.552.166-.552.368m.736 2.234c0 .217.248.643.552.946.491.491.552.447.552-.394 0-.596-.204-.946-.552-.946-.304 0-.552.177-.552.394m.984 2.452c-.094.155.06.495.343.756.421.39.513.377.513-.07 0-.625-.601-1.107-.856-.686M69.995 164.687c-.517.586-.333.646.934.306.456-.122.828-.368.828-.546 0-.519-1.242-.349-1.762.24m161.1-.205c42.935.216 39.694-.016 42.769 3.059 2.93 2.93 2.665-1.846 2.777 50.03.062 28.584.233 46.274.447 46.274.19 0 1.221-.346 2.291-.769 6.988-2.762 16.911-4.75 23.705-4.75 1.564 0 2.666-.145 2.548-.336-.194-.313-2.754-.266-7.62.142-4.594.386-12.852 2.322-17.567 4.12-1.294.493-2.577.81-2.852.704-.418-.16-.501-7.679-.504-45.557l-.003-45.366-.884-1.897c-1-2.149-2.656-3.883-4.813-5.041l-1.472-.79-38.454-.007-38.455-.008 38.087.192m-162.282.682c0 .236-.331.429-.736.429-.405 0-.736.138-.736.306 0 .168-.414.528-.92.798-.506.271-.92.782-.92 1.136 0 .354-.207.717-.46.807-.253.091-.359.274-.236.408.124.134 1.193-.664 2.376-1.775 1.184-1.11 2.035-2.135 1.892-2.278-.143-.143-.26-.067-.26.169m2.534.936c-3.22 1.154-5.149 3.493-5.834 7.076-.299 1.562-.385 16.578-.305 53.687l.109 51.518.799 1.656c.907 1.882 2.253 3.262 4.272 4.381l1.392.771h98.563c110.52 0 100.021.284 102.932-2.792 2.466-2.606 2.346.327 2.346-57.322 0-60.93.44-55.424-4.668-58.463l-1.404-.835-98.436-.077c-79.822-.063-98.687.013-99.766.4m198.754.628c2.06.934 3.158 1.942 4.176 3.833l.792 1.472v53.358c0 50.015-.04 53.442-.643 54.698-.752 1.57-2.844 3.508-4.562 4.226-1.85.772-197.06.754-198.89-.019-1.447-.611-3.663-2.83-4.512-4.517-.985-1.958-.881-106.706.108-108.884.777-1.711 3.036-3.766 4.87-4.43 2.532-.916 196.627-.659 198.661.263m-205.612 3.486c-.253.275-.46.921-.46 1.436 0 .514-.165.935-.368.935-.243 0-.368 17.725-.368 52.438 0 32.1.133 52.438.343 52.438.188 0 .414.372.502.828.087.455.182-23.459.209-53.143.037-39.3.162-54.009.46-54.108.226-.075.35-.404.276-.731-.112-.497-.208-.512-.594-.093m185.755 2.44c-1.325 1.423-.384 3.981 1.458 3.962.385-.004.33-.131-.184-.423-2.107-1.195-1.675-3.976.617-3.976 2.057 0 2.768 3.085.918 3.98-.624.301-.662.392-.176.411.815.033 1.769-1.356 1.769-2.576 0-2.064-2.913-2.976-4.402-1.378m6.886-.407c-.354.206-.644.558-.644.781 0 .224.303.133.673-.202 1.442-1.305 3.702-.426 3.731 1.45.036 2.408-2.988 2.642-4.196.325-.322-.617-.573-.836-.574-.502-.008 2.152 3.381 3.423 4.577 1.716 1.718-2.453-.932-5.103-3.567-3.568m6.863-.116c-1.352.902-1.431 3.447-.129 4.144 1.935 1.035 4.029-.055 4.029-2.098 0-1.815-2.378-3.063-3.9-2.046m3.024 1.021c1.13 1.725-1.024 3.945-2.769 2.854-.728-.455-.973-2.549-.383-3.261.727-.876 2.458-.652 3.152.407m38.779 89.589c0 .608.165 1.104.368 1.104.202 0 .368-.496.368-1.104 0-.607-.166-1.103-.368-1.103-.203 0-.368.496-.368 1.103m1.164 6.579c-.597.379-.431 1.95.23 2.168.337.111.448-.225.384-1.168-.049-.727-.096-1.32-.106-1.317-.009.003-.238.146-.508.317m.455 7.928c.024 1.682.193 2.598.497 2.698.301.1.46-.239.46-.982 0-.625-.156-1.135-.347-1.135-.191 0-.415-.704-.497-1.564-.083-.86-.134-.418-.113.983m-243.386 3.126c0 .219.166.399.368.399.203 0 .368.424.368.941 0 .535.16.844.368.715.203-.125.368.054.368.397 0 .709 1.013 1.598 1.84 1.614.355.008.191-.299-.46-.859-.556-.478-1.012-1.058-1.012-1.287 0-.23-.154-.417-.342-.417-.188 0-.395-.36-.46-.799-.119-.812-1.038-1.435-1.038-.704m244.025 5.275c-.038 1.33.081 1.748.502 1.748.343 0 .552-.348.552-.92 0-.506-.154-.92-.343-.92-.188 0-.414-.373-.502-.828-.087-.456-.182-.042-.209.92m-239.241.061c0 .32.262.583.583.583.65 0 .537-.793-.146-1.02-.24-.08-.437.116-.437.437m1.972.767c.303.303.729.552.946.552.217 0 .394-.249.394-.552 0-.348-.35-.552-.946-.552-.841 0-.885.061-.394.552m109.457.091c2.491.063 6.465.063 8.832-.001 2.366-.064.328-.116-4.529-.116-4.858 0-6.794.053-4.303.117m31.35 1.748c0 .911.165 1.656.368 1.656.202 0 .368-.745.368-1.656 0-.91-.166-1.655-.368-1.655-.203 0-.368.745-.368 1.655m47.47-1.287c0 .202.154.368.342.368.188 0 .414.372.502.827.115.599.173.497.209-.368.036-.84-.114-1.195-.501-1.195-.304 0-.552.165-.552.368m49.824 6.226c.024 1.535.199 2.416.498 2.515.288.095.46-.203.46-.799 0-.523-.156-.951-.347-.951-.191 0-.415-.704-.498-1.564-.088-.909-.135-.574-.113.799m-49.088-.891c0 .304.155.552.344.552.19 0 .412.538.493 1.196.114.919.162.792.208-.552.045-1.334-.072-1.748-.493-1.748a.554.554 0 0 0-.552.552m-48.942 4.6c0 .81.165 1.472.368 1.472.202 0 .368-.662.368-1.472 0-.809-.166-1.472-.368-1.472-.203 0-.368.663-.368 1.472m47.311 2.247c-.14 1.235-.162 2.339-.048 2.453.114.114.207-.235.207-.775 0-.539.165-.981.368-.981.202 0 .368-.662.368-1.472 0-2.27-.611-1.741-.895.775m2.367-1.336c0 .535.153.877.341.761.188-.116.42.164.516.623.096.458.149.183.118-.61-.062-1.626-.975-2.35-.975-.774m49.062 4.028c.071 1.613.984 2.35.984.796 0-.523-.154-.951-.341-.951-.188 0-.423-.29-.524-.644-.1-.354-.154.006-.119.799m-48.326.765c0 .572.208.92.552.92.343 0 .552-.348.552-.92 0-.573-.209-.92-.552-.92-.344 0-.552.347-.552.92m-51.15 1.84c0 .708.165 1.288.368 1.288.202 0 .368-.58.368-1.288 0-.709-.166-1.288-.368-1.288-.203 0-.368.579-.368 1.288m52.254 4.048c0 .303.165.552.367.552.203 0 .368-.249.368-.552 0-.304-.165-.552-.368-.552-.202 0-.367.248-.367.552m47.893.224c-.107 1.143.416 4.007.731 4.007.174 0 .318-.579.318-1.287 0-.709-.155-1.288-.344-1.288-.189 0-.413-.456-.497-1.012-.084-.557-.178-.746-.208-.42m-52.864 2.19c-.142 1.227-.159 2.331-.036 2.453.122.123.223-.301.223-.942s.165-1.165.368-1.165c.202 0 .368-.58.368-1.288 0-2.116-.644-1.458-.923.942m-48.019 2.207c0 .902.145 1.404.368 1.266.202-.125.368-.797.368-1.493 0-.697-.166-1.266-.368-1.266-.203 0-.368.672-.368 1.493m53.725.368c0 .657.154 1.031.368.898.203-.125.368-.631.368-1.125s-.165-.898-.368-.898c-.202 0-.368.506-.368 1.125m48.148 5.543c.075.785.284 1.427.465 1.427.513 0 .387-2.475-.136-2.676-.339-.13-.428.209-.329 1.249m-47.412-.229c0 .506.166.92.368.92.203 0 .368-.414.368-.92s-.165-.92-.368-.92c-.202 0-.368.414-.368.92m-55.565 2.588c0 1.87.118 2.38.552 2.38.303 0 .552.166.552.368 0 .233 2.637.368 7.175.368 4.225 0 7.176-.142 7.176-.345 0-.202-2.76-.357-6.616-.373-6.62-.027-8.471-.325-8.471-1.365 0-.271.165-.493.368-.493.603 0 .436-2.471-.184-2.709-.456-.175-.552.204-.552 2.169m48.451-1.054c-.135.134-.245 1.16-.245 2.278 0 1.866.044 1.974.54 1.318.935-1.235.663-4.554-.295-3.596m7.85 3.434c0 .405.166.736.368.736.203 0 .368.331.368.736 0 .728.246.736 23.367.736 18.449 0 23.368-.097 23.368-.46 0-.364-4.832-.44-23.192-.363l-23.191.098-.222-1.11c-.248-1.243-.866-1.509-.866-.373" fill="#8c8c96"/><path d="M286.293 54.462c0 .202-.645.368-1.433.368-.858 0-1.508.198-1.622.493-.123.32-.588.435-1.327.326-.876-.128-1.138-.028-1.138.434 0 .436-.246.556-.898.438-.664-.12-.845-.026-.696.361.122.319-.031.524-.391.524-.325 0-.893.289-1.262.644-1.487 1.427-3.019 2.668-3.296 2.668-.911 0-4.898 4.972-6.342 7.911-.498 1.012-.99 1.923-1.094 2.024-.535.521-1.109 1.935-1.109 2.733 0 .497-.165 1.006-.368 1.131-.216.134-.368 2.327-.368 5.336 0 3.008.152 5.202.368 5.336.203.125.368.704.368 1.288 0 .583.166 1.162.368 1.287.203.126.368.526.368.89 0 .824 2.219 5.182 2.638 5.182.168 0 .306.318.306.706 0 .979.379 1.87.796 1.87.192 0 1.365 1.035 2.607 2.3 1.243 1.265 2.475 2.251 2.74 2.192.264-.06.481.076.481.302 0 .664.99 1.462 1.814 1.462.419 0 .762.165.762.368 0 .202.331.368.736.368.405 0 .736.165.736.368 0 .202.455.369 1.012.371.556.001 2.032.313 3.279.692 2.512.764 11.532 1.077 11.532.4 0-.198.663-.359 1.472-.359.831 0 1.472-.178 1.472-.408 0-.224.255-.309.566-.19.322.124.656-.018.775-.328.128-.334.694-.546 1.458-.546.687 0 1.249-.166 1.249-.368 0-.203.26-.368.578-.368.661 0 1.63-.859 1.63-1.446 0-.217.294-.394.655-.394.36 0 .893-.331 1.185-.736.291-.405.663-.736.825-.736.552 0 4.327-4.029 4.327-4.618 0-.692.915-1.703 1.244-1.375.125.125.227-.214.227-.753 0-.54.166-.982.368-.982.203 0 .368-.331.368-.736 0-.404.166-.736.368-.736.203 0 .368-.313.368-.696 0-.383.263-.798.585-.921.456-.175.531-.535.343-1.647-.186-1.105-.111-1.471.336-1.643.884-.34.863-10.916-.022-10.916-.468 0-.55-.24-.377-1.104.166-.827.085-1.104-.322-1.104-.375 0-.543-.398-.543-1.288 0-.708-.165-1.288-.368-1.288-.202 0-.368-.331-.368-.736 0-.405-.165-.736-.368-.736-.202 0-.368-.294-.368-.654 0-.361-.331-.894-.736-1.186-.404-.291-.735-.828-.735-1.192 0-.861-4.571-5.431-5.432-5.431-.364 0-.9-.332-1.192-.736-.292-.405-.825-.736-1.185-.736-.361 0-.655-.166-.655-.368 0-.203-.314-.368-.697-.368-.383 0-.787-.236-.897-.524-.123-.32-.495-.446-.96-.325-.551.144-.758.024-.758-.442 0-.516-.215-.598-1.104-.42-.827.165-1.104.084-1.104-.322 0-.388-.42-.543-1.472-.543-.809 0-1.472-.166-1.472-.368 0-.225-1.717-.368-4.416-.368-2.698 0-4.415.143-4.415.368m14.811 13.874c-.253.094-.46.405-.46.692 0 .287-.166.521-.368.521-.202 0-.368.331-.368.736 0 .405-.166.736-.368.736-.202 0-.368.414-.368.92s-.166.92-.368.92c-.202 0-.368.349-.368.775 0 .538-.169.711-.552.564-.336-.129-.552-.001-.552.329 0 .297-.165.54-.368.54-.202 0-.368.331-.368.736 0 .405-.165.736-.368.736-.202 0-.368.215-.368.479 0 .677-.865 2.459-1.196 2.462-.152.002-.276.417-.276.923s-.165.92-.368.92c-.202 0-.368.294-.368.654 0 .361-.331.894-.736 1.186-.405.291-.736.825-.736 1.185 0 .36-.165.655-.368.655-.202 0-.368.331-.368.736 0 .404-.165.736-.368.736-.202 0-.368.301-.368.669 0 1.431-1.556 2.239-2.491 1.292-.451-.457-.82-1.086-.82-1.396 0-.311-.166-.565-.368-.565-.203 0-.368-.332-.368-.736 0-.405-.166-.736-.368-.736-.203 0-.368-.295-.368-.655 0-.36-.332-.894-.736-1.185-.405-.292-.736-.908-.736-1.37 0-.461-.166-.838-.368-.838-.203 0-.368-.341-.368-.758s-.166-.655-.368-.53c-.209.129-.368-.18-.368-.714 0-.518-.166-.942-.368-.942-.203 0-.368-.26-.368-.578 0-.661-.86-1.63-1.446-1.63-.521 0-.481-.407.118-1.196.655-.862 1.328-.816 1.328.092 0 .405.165.736.368.736.202 0 .368.377.368.839 0 .461.331 1.077.736 1.369.404.292.736.825.736 1.185 0 .36.165.655.368.655.202 0 .368.331.368.736 0 .405.165.736.368.736.202 0 .368.26.368.578 0 .661.859 1.63 1.445 1.63.217 0 .394.165.394.368 0 .202-.189.368-.421.368-.232 0 .026.414.572.921 1.137 1.054 2.966.353 2.645-1.013-.089-.38.062-.644.367-.644.284 0 .517-.295.517-.655 0-.36.332-.894.736-1.185.405-.292.736-.825.736-1.185 0-.361.166-.655.368-.655.203 0 .368-.331.368-.736 0-.405.166-.736.368-.736.203 0 .368-.414.368-.92s.166-.92.368-.92c.203 0 .368-.295.368-.655 0-.36.331-.893.736-1.185.405-.292.736-.825.736-1.185 0-.36.166-.655.368-.655.203 0 .368-.331.368-.736 0-.432.245-.736.595-.736.414 0 .536-.224.402-.736-.128-.489-.011-.736.349-.736.33 0 .495-.279.425-.718-.176-1.1 1.19-1.987 1.909-1.239.42.436.442.614.092.744M77.185 214.197c-.739.43-.853 1.822-.202 2.473.34.341 19.031.441 81.888.441h81.447l.306-.828c.18-.484.15-1.171-.071-1.656l-.377-.828-81.173.012c-54.453.007-81.386.134-81.818.386m-.066 37.347c-.652.653-.735 1.548-.218 2.366.307.485 6.315.564 49.764.654l49.416.102.644-.787c.802-.98.835-2.393.062-2.69-1.52-.583-99.077-.236-99.668.355" fill="#8c84fc"/></g></svg>