<svg xmlns="http://www.w3.org/2000/svg" width="400" height="325.424"><g fill-rule="evenodd"><path d="M98.334 42.748c-.199.24-.266.533-.148.651.117.117-.479.214-1.326.214-1.282 0-2.485.328-3.083.842-.066.057.119.342.41.633.742.742.371 1.128-1.083 1.128-.688 0-1.417.211-1.634.472-.215.259-1.075.515-1.911.569-1.422.092-1.527.162-1.629 1.075-.157 1.411-.929 2.116-2.32 2.116-2.011 0-2.262.414-2.363 3.905l-.09 3.092-1.709-.045c-2.112-.055-2.183.251-.195.838 1.913.565 2.392.065 2.392-2.493 0-1.244.139-1.791.488-1.925.319-.122.489-.628.489-1.454 0-1.178.065-1.268.932-1.268 1.33 0 2.587-1.098 2.709-2.367.111-1.144-.185-1.035 4.658-1.726 1.843-.262 2.191-.587 1.936-1.805-.13-.619-.018-.932.407-1.139.674-.328 201.12-.597 205.689-.276l2.987.21.477 1.192c.262.656.358 1.266.214 1.357-.144.09.421.177 1.256.194.834.016 2.103.196 2.819.4.716.203 1.72.452 2.23.552.862.17.919.274.804 1.482-.144 1.504.259 1.731 2.688 1.517 1.316-.117 1.279-.133-.433-.185l-1.871-.056v-3.255h-1.466c-.844 0-1.981-.276-2.68-.651-.668-.358-1.547-.651-1.952-.651-.567 0-.737-.186-.737-.802 0-.481-.273-.948-.682-1.167-.415-.222-.624-.586-.534-.929.113-.433-.058-.564-.737-.564-.695 0-.851.127-.73.592.107.409-.025.592-.425.592-.32 0-.484-.097-.367-.214 1.096-1.096 1.831-1.088-101.814-1.088-84.35 0-101.364.073-101.666.437M79.74 54.516c0 .588.174.814.631.814.767 0 1.066-.415.799-1.11-.333-.869-1.43-.642-1.43.296m235.875 3.005c.094.245.731.412 1.57.412h1.412l.132 1.546c.123 1.441.13 1.424.099-.244l-.032-1.79-1.67-.168c-1.264-.127-1.631-.068-1.511.244m-76.152 29.791c-2.377.265-2.848.412-2.848.888 0 .314-.091 1.029-.203 1.588-.158.791-.091 1.018.303 1.018.278 0 .553-.33.61-.733.057-.403.323-.732.592-.732.297 0 .478.287.462.732-.057 1.622 1.129.841 1.359-.895l.216-1.627h1.585c.872 0 1.585-.147 1.585-.326 0-.179-.183-.304-.406-.278-.224.027-1.689.191-3.255.365m6.265-.056c-.674.114.028.197 1.721.202 1.573.005 2.782-.07 2.685-.166-.245-.245-3.039-.268-4.406-.036m20.098.21a43.12 43.12 0 0 0 4.068 0c1.119-.063.204-.115-2.034-.115s-3.153.052-2.034.115m9.633.695c.117.604.212 1.373.212 1.709 0 .506.25.61 1.465.61h1.464v27.014l-.732.012c-.843.013-2.777 1.469-2.423 1.823.131.13.404.071.607-.133.228-.228.571-.262.894-.089 1.732.926 1.809.387 1.92-13.425.127-15.788-.014-18.131-1.089-18.131-.421 0-.862.156-.98.347-.139.225-.447.14-.882-.245-.662-.584-.666-.579-.456.508m-36.24.51c0 .258-.136.553-.303.656-.387.239-.776-.37-.511-.8.299-.484.814-.393.814.144m-10.566 2.541c-.399 1.246-.352 2.861.079 2.696.248-.095.512-.173.587-.173.075 0 .136-.659.136-1.465 0-1.351-.498-2.008-.802-1.058m46.367.895c0 .634.953.707 1.601.123.196-.177-.038-.337-.868-.592-.601-.185-.733-.101-.733.469m-50.271 4.861c-.118.191-.865.347-1.66.347-1.293 0-1.441.077-1.408.732.029.551.075.592.187.163.113-.433.49-.57 1.57-.57 1.278 0 2.119-.426 1.688-.857-.089-.089-.259-.006-.377.185m-5.107 3.837c-1.243.131-1.562.571-2.066 2.855-.289 1.307-.74 1.792-1.668 1.792-.685 0-.774.148-.774 1.29 0 .957-.168 1.38-.651 1.639-.533.285-.643.654-.606 2.045.024.934.108 1.368.185.965.078-.402.277-.732.444-.732.44 0 .372-.899-.08-1.05-.677-.225.065-.903.988-.903 1.2 0 1.673-.55 1.673-1.945 0-.762.225-1.358.651-1.722.45-.385.651-.96.651-1.863v-1.305h1.79c1.573 0 1.79-.078 1.79-.65 0-.424-.199-.632-.569-.597-.314.03-1.105.112-1.758.181m-6.165 11.997c-.126 2.618-.109 2.574-1.004 2.677-1.228.142-1.72.889-1.786 2.714-.063 1.739.445 2.146.753.603.218-1.088.491-1.211 1.088-.492.221.267.516.414.656.328.313-.194.796-5.981.522-6.255-.11-.11-.213.082-.229.425m61.543 3.734c0 .748.427 1.196.998 1.047.896-.235.78-.961-.184-1.145-.448-.086-.814-.042-.814.098m-24.421 3.898c-.531.544-.965 1.276-.965 1.628 0 .504-.225.64-1.058.644-1.899.008-2.523.319-2.517 1.254l.004.857.412-.814c.331-.654.736-.853 2.07-1.017 1.812-.222 2.92-1.043 3.097-2.293.1-.709.287-.77 2.874-.942l2.766-.183-2.858-.061c-2.79-.059-2.883-.036-3.825.927m-4.52 5.278c-.021.469-.357.576-1.897.608l-1.871.038 1.627.273c1.726.29 2.701-.147 2.342-1.05-.12-.3-.183-.259-.201.131m-3.37 2.07c-.458.458-.227 1.103.396 1.103.348 0 .723.147.833.326.391.632 2.116.383 2.116-.307 0-.902-2.669-1.798-3.345-1.122m-64.597 24.102c-.319.128-.39 3.612-.331 16.166l.075 16.002.177-15.948c.097-8.771.209-15.983.25-16.026.04-.043 7.213-.118 15.94-.166l15.867-.088-15.786-.052c-8.682-.029-15.968.021-16.192.112m80.716.028 16.518.087.01 2.357c.007 1.76.094 2.213.341 1.787.226-.387.736-.569 1.596-.569 1.369 0 1.876-.674 1.47-1.953-.16-.504-.492-.651-1.475-.651-.935 0-1.36-.171-1.617-.651-.342-.639-.64-.65-16.854-.573l-16.506.079 16.517.087m16.559 20.749c-.07 3.65-.497 4.581-2.187 4.774l-.946.108-.034 2.766c-.019 1.522.027 2.217.101 1.546.145-1.31.808-1.634 1.353-.661 1.084 1.937 2.502-5.939 1.917-10.649-.077-.626-.169.326-.204 2.116m-65.218 11.31c-.084.223-.036.699.105 1.057.21.531.262.455.281-.406.024-1.1-.124-1.349-.386-.651m108.452 81.774c-.135 1.166-.236 1.292-.97 1.207-1.318-.153-2.284.994-2.216 2.629l.057 1.371.125-1.383c.123-1.364.141-1.383 1.368-1.383 1.579 0 2.042-.57 1.9-2.336l-.114-1.407-.15 1.302M79.74 267.86c0 .179.814.326 1.809.326 1.123 0 1.733-.124 1.608-.326-.111-.179-.925-.325-1.809-.325-.885 0-1.608.146-1.608.325m3.344 3.906c.029.389.282.651.631.651.674 0 .748-.355.191-.912-.574-.573-.878-.477-.822.261m-.09 2.905c0 .21.776.349 1.935.349 2.163 0 2.947.626 2.947 2.351 0 .837.091.9 1.221.852 1.201-.051 1.204-.054.163-.183-.83-.103-1.059-.286-1.063-.843-.007-1.241-.373-2.15-.925-2.302-1.463-.402-4.278-.549-4.278-.224m230.187.257a7.156 7.156 0 0 0 1.791 0c.492-.075.089-.136-.896-.136-.984 0-1.387.061-.895.136m-1.383 1.158c0 .467.153.943.339 1.058.222.137.262-.108.117-.713-.3-1.247-.456-1.365-.456-.345m-1.627 1.864-1.79.219 2.034.053c1.174.031 2.034-.085 2.034-.272 0-.179-.11-.302-.244-.273-.134.029-1.05.152-2.034.273m-218.877.778c.358.276 1.017.51 1.464.518 1.369.026 1.776.643 2.045 3.097.044.405.355.692.823.758.578.082.729-.032.651-.488-.078-.458.139-.618.942-.696.899-.087 1.025-.009.914.566l-.128.667 55.908.005 55.908.006.378-.831c.485-1.064.481-1.358-.012-.865-.424.424-107.74.596-112.66.18-2.436-.206-2.49-.23-2.49-1.089 0-1.199-.835-1.833-2.767-2.103-1.51-.211-1.58-.192-.976.275m215.769-.155c-.17.164-.676.347-1.123.407-.617.082-.839.33-.918 1.021-.198 1.723.498 1.684-32.177 1.785-29.791.093-30.328.106-30.282.726.047.62.586.632 29.742.642 29.57.009 29.693.007 29.567-.645-.109-.564.047-.654 1.131-.654 1.833 0 2.286-.265 2.286-1.337 0-.78.136-.941.79-.941.678 0 1.814-.728 1.814-1.162 0-.247-.511-.149-.83.158" fill="#e4a4a4"/><path d="M98.516 44.473c-.117.117-.129.545-.027.951.22.877-.609 1.443-2.11 1.443-.538 0-1.069.147-1.18.326-.11.179-.686.325-1.28.325-2.349 0-3.07.323-3.177 1.421-.084.862-.249 1.037-1.065 1.13-1.14.13-1.901 1.078-2.126 2.652-.144 1.005-.295 1.157-1.313 1.321-1.723.278-1.83.429-2.034 2.861-.315 3.754-.839 4.61-2.82 4.61H79.74v202.441h1.486c1.812 0 2.873.499 2.596 1.222-.229.596.459 5.302.84 5.743.138.161.809.383 1.489.493 1.115.18 1.253.312 1.4 1.335.225 1.574.986 2.522 2.126 2.652.822.093.981.266 1.067 1.156.087.898.249 1.07 1.139 1.207 6.367.978 6.793 1.132 6.661 2.409l-.09.87H210.09v-95.362l-15.67-.162c-14.851-.155-15.706-.196-16.358-.786-.685-.62-.688-.692-.604-16.924l.085-16.302 16.273-.162 16.274-.163.005-17.25c.007-22.884-.086-21.969 2.238-21.969 1.017 0 1.174-.495 1.174-3.707 0-3.08.314-3.698 1.947-3.842 1.087-.095 1.144-.166 1.404-1.724.149-.894.481-1.857.738-2.141.257-.284.467-.68.467-.879 0-.677.69-.791 1.323-.219.611.553.63.539.63-.467 0-1.041 1.789-3.294 2.615-3.294.197 0 .842-.513 1.433-1.14.891-.944 1.303-1.139 2.419-1.139h1.345v-1.29c0-.99.163-1.378.704-1.668.842-.45 4.593-.19 4.766.33.283.849 1.604.375 1.434-.515-.11-.579.015-.996.38-1.263.478-.349.484-.422.048-.59-1.652-.634.28-1.602 3.896-1.951 3.878-.374 35.952-.387 38.243-.015l1.79.29.263 2.929c.429 4.776.123 29.362-.372 29.857-.31.31-2.96.439-10.729.52-13.416.14-13.848.192-14.061 1.683-.173 1.216-1.055 1.498-5.37 1.722-1.298.067-1.302.071-1.405 1.525-.057.802-.221 1.608-.364 1.79-.142.183-.356 1.319-.474 2.525-.306 3.12-1.079 4.273-1.75 2.608-.17-.425-.271-.28-.396.569-.14.951-.316 1.157-1.062 1.243l-.895.103v17.532h36.14l.364.799c.256.56.278 1.798.075 4.149l-.29 3.351-1.383.1-1.383.1-.044 1.365c-.025.75-.064 6.051-.087 11.779-.047 11.518-.053 11.554-1.792 11.554-.661 0-1.385.183-1.608.407-.314.314-3.799.407-15.2.407h-14.792v95.86l28.922-.015c29.672-.015 29.525-.01 29.01-.973-.418-.781.462-1.505 2.116-1.74 5.563-.792 5.528-.78 5.746-1.966.117-.637.271-.746 2.29-1.608 1.087-.465 1.211-.646 1.302-1.911.101-1.397.102-1.398 1.566-1.561l1.464-.163.237-2.929c.343-4.248.398-4.394 1.643-4.394.945 0 1.096-.134 1.461-1.305.426-1.366.618-198.801.194-200.403-.158-.6-.421-.733-1.451-.733-1.479 0-1.495-.037-1.847-4.393l-.237-2.93-1.464-.162c-1.46-.163-1.465-.168-1.565-1.54-.09-1.239-.22-1.429-1.302-1.898-1.978-.859-2.174-.999-2.287-1.642-.177-1-1.044-1.43-2.883-1.43-.95 0-1.727-.146-1.727-.325 0-.179-.281-.326-.625-.326-.97 0-1.654-.35-1.654-.848 0-.249-.129-.453-.287-.453-.158 0-.364-.292-.457-.648-.171-.652-201.473-1.095-202.123-.445m138.349 46.568c.585.073 1.464.071 1.953-.003.489-.074.01-.133-1.064-.132-1.074.002-1.474.063-.889.135" fill="#d46c6c"/><path d="M89.829 41.823a.5.5 0 0 1-.507.488c-.279 0-.435.117-.347.259.088.143.026.473-.139.733-.235.371-.3.321-.304-.238-.007-.991-3.897-1.037-4.156-.049-.085.328-.44.597-.788.597-.365 0-.541.146-.417.347.118.191-.093.428-.469.526-.39.102-.684.443-.684.792 0 .393-.23.613-.641.613-.619 0-.836 6.082-.308 8.625.099.478-.059.678-.597.755-1.313.186-1.015 1.929.374 2.189 2.222.417 2.301.315 2.401-3.111.101-3.487.352-3.901 2.363-3.901 1.391 0 2.163-.705 2.32-2.116.102-.913.207-.983 1.629-1.075.836-.054 1.696-.31 1.911-.569.217-.261.946-.472 1.634-.472 1.454 0 1.825-.386 1.083-1.128-.291-.291-.476-.576-.41-.633.598-.514 1.801-.842 3.083-.842.847 0 1.443-.097 1.326-.214-.118-.118-.051-.411.148-.651.299-.361-.238-.437-3.085-.437-2.93 0-3.419-.073-3.259-.488.145-.379-.077-.489-.987-.489-.826 0-1.174.145-1.174.489m211.837.925c.2.24.266.533.148.651-.117.117.013.214.291.214.908 0 .913-1.16.004-1.235-.639-.053-.73.023-.443.37m2.241.269c.089.339.436.763.772.943.343.184.61.677.61 1.129 0 .616.17.802.737.802.405 0 1.284.293 1.952.651.699.375 1.836.651 2.68.651h1.466v3.255h3.494l.04-1.713c.039-1.685.024-1.713-.934-1.752-.649-.026-.973.117-.973.43 0 .258-.149.377-.331.265-.182-.113-.232-.364-.112-.558.127-.205.067-.26-.141-.131-.198.122-.519-.075-.713-.438-.272-.507-.68-.66-1.766-.66-1.502 0-1.819-.492-1.819-2.824 0-.775-.05-.789-2.562-.728-2.338.056-2.547.115-2.4.678m11.797 12.457v1.773l1.546.099 1.546.099.082 104.93c.06 77.298-.015 105.045-.284 105.37-.202.242-.934.441-1.628.441h-1.262v3.58h4.556V53.702h-4.556v1.772m-74.125 32.012c-1.401.081-1.709.206-1.709.692 0 .326-.092 1.051-.204 1.61l-.203 1.018h8.544v-.953c0-.634-.191-1.002-.57-1.101-.313-.082.199-.166 1.139-.187 1.522-.034 2.744-.993 1.302-1.022-.224-.005-1.798-.041-3.499-.082-1.7-.04-3.861-.029-4.8.025m26.362-.016c-3.244.082-3.987.19-3.987.579 0 .263.22.478.489.478.268 0 .488.203.488.45 0 .248.293.527.651.621.358.094.651.404.651.689 0 .449.59.519 4.394.519 2.655 0 4.393.126 4.393.319 0 .175.366.411.814.523.448.113.814.319.814.459 0 .141-.366.347-.814.46l-.814.204v4.225c0 3.538-.079 4.225-.488 4.225-.326 0-.488.326-.488.986 0 .577.203 1.065.488 1.174.714.274.709 4.674-.005 4.674-.348 0-.471.289-.419.977.041.537.258.976.482.976.291 0 .433.9.5 3.173.088 3.011.131 3.179.825 3.278.403.057.733.278.733.49 0 1.039-1.73 1.182-14.569 1.203-12.671.021-12.771.027-12.771.692 0 .6-.147.653-1.404.499-1.41-.173-2.258.072-2.154.622.03.162.038.845.017 1.516l-.039 1.22h-3.254v3.581h3.58v-1.59c0-1.743.297-1.977 2.522-1.986.833-.004 1.058-.14 1.058-.644 0-.352.434-1.084.965-1.628l.966-.987h23.415l1.069-.977c.588-.537 1.403-.976 1.81-.976h.741V90.48H275.755l-.21-1.585-.21-1.584-1.703.029c-.937.016-3.498.075-5.691.13m-38.486 4.794c0 1.606-.135 1.697-2.767 1.872l-1.302.087-.162 1.627-.163 1.628-1.546.099c-2.102.135-2.346 1.365-.271 1.365 1.649 0 2.308-.265 2.087-.84-.155-.404 1.86-.716 3.229-.5.134.021.244-.474.244-1.101v-1.139h1.627c1.23 0 1.628-.119 1.628-.488 0-.425.349-.615 1.002-.545.104.011.222-.777.261-1.752l.072-1.771h-3.939v1.458m-11.066 10.912c0 .903-.201 1.478-.651 1.863-.426.364-.651.96-.651 1.722 0 1.395-.473 1.945-1.673 1.945-.923 0-1.665.678-.988.903.476.159.504.955.039 1.111-.19.063-.492 1.723-.672 3.688-.412 4.507-.451 4.634-1.214 3.944-.769-.696-1.025-.672-1.025.095 0 .345-.22.847-.488 1.116-.421.42-.488 2.675-.488 16.262 0 14.083-.055 15.795-.515 15.971-.283.109-7.517.197-16.076.197-13.889 0-15.582.056-15.759.515-.493 1.285-.212 31.367.291 31.174.424-.163.488-2.184.488-15.45V152.97H211.88v-11.229c0-9.764.063-11.228.488-11.228.368 0 .488-.396.488-1.606 0-1.326.115-1.642.66-1.815.362-.115.638-.381.612-.591-.178-1.441.076-2.823.518-2.823.415 0 .488-.85.488-5.696v-5.696h1.139c1.085 0 1.14-.054 1.14-1.139 0-.922.124-1.139.65-1.139.585 0 .651-.217.651-2.115v-2.116h1.113c1.928 0 2.142-.215 2.142-2.15v-1.756h-3.58v1.305m24.085 49.306c0 .427 2.043.488 16.436.488s16.436-.061 16.436-.488c0-.428-2.043-.489-16.436-.489s-16.436.061-16.436.489m31.57 6.997v6.184h-1.139c-1.085 0-1.139.054-1.139 1.139 0 .796-.148 1.139-.489 1.139-.42 0-.488 1.106-.488 7.998 0 7.442.04 7.991.57 7.889.48-.091.595-.591.732-3.197l.163-3.088.946-.108c2.112-.241 2.123-.305 2.135-12.83.011-11.096-.001-11.31-.64-11.31-.628 0-.651.217-.651 6.184m-63.546 73.288c-.045 27.088-.209 49.507-.362 49.82-.229.468-.128.57.563.57.605 0 .893-.207 1.019-.732.547-2.266-.008-98.691-.569-98.799-.537-.103-.572 2.506-.651 49.141M79.74 269.976v1.79h1.592c1.785 0 1.988-.235 1.988-2.305v-1.275h-3.58v1.79m3.254 5.626c0 .421.288.604 1.041.661 1.271.097 1.319.141 1.319 1.226 0 .575.206.922.61 1.028.336.088.61.362.61.61 0 .322.457.45 1.611.45h1.61l.098 1.709.099 1.708 2.479.095c2.422.092 2.476.077 2.364-.651-.426-2.762-.689-3.166-2.077-3.192-.447-.008-1.098-.23-1.445-.493-.348-.263-1.263-.478-2.034-.478-1.317 0-1.403-.055-1.403-.904 0-1.725-.784-2.351-2.947-2.351-1.641 0-1.935.089-1.935.582m229.13.043c0 .97.351 1.654.848 1.654.25 0 .454-.22.454-.489 0-.341.343-.488 1.139-.488.922 0 1.139-.124 1.139-.651 0-.572-.217-.651-1.79-.651-1.548 0-1.79.085-1.79.625m-4.644 3.281c-.307.358-.925.651-1.374.651-.684 0-.817.153-.817.941 0 1.071-.453 1.337-2.276 1.337-1.002 0-1.23.112-1.163.57.15 1.02 7.019.956 7.019-.065 0-2.276.314-2.745 1.906-2.848 1.128-.073 1.533-.241 1.614-.667.171-.905-4.126-.833-4.909.081m-211.264 3.189c-.307.498.364 1.098 1.106.989 1.153-.169 1.138-1.249-.017-1.249-.51 0-1 .117-1.089.26" fill="#ecc0be"/><path d="M97.315 43.834c-2.422.249-2.666.381-2.465 1.337.258 1.227-.103 1.627-1.608 1.78l-1.297.132 1.371.055c1.506.06 2.174-.611 1.983-1.992-.09-.647.082-.741 1.69-.932 2.317-.274 201.58-.337 204.466-.065l2.186.207.273 1.337c.263 1.292.313 1.335 1.465 1.267.655-.039 1.8.144 2.544.406.745.263 1.682.478 2.084.478.603 0 .769.231.942 1.317.249 1.555.849 1.42.849-.191 0-.956-.127-1.139-.895-1.288a33.923 33.923 0 0 1-2.197-.544c-.716-.204-1.985-.384-2.819-.4-.835-.017-1.4-.104-1.256-.194 1.143-.717-.753-2.522-2.858-2.721-2.235-.211-202.403-.2-204.458.011m-8.896 3.901c-.12.12-.217.622-.217 1.116 0 .583-.301 1.135-.858 1.573-.471.371-.691.674-.488.674.704 0 1.671-1.306 1.671-2.257 0-.835.135-.973 1.058-1.087l1.058-.132-1.004-.052c-.552-.028-1.101.046-1.22.165m223.673 3.138c.145.144 1.054.216 2.019.158l1.756-.104-2.02-.159c-1.11-.087-1.9-.04-1.755.105m-227.47 1.493c0 .826-.17 1.332-.489 1.454-.268.103-.488.361-.488.573 0 .237.239.17.619-.174.608-.55 1.111-3.121.61-3.121-.139 0-.252.571-.252 1.268m230.849 3.126c.003.895.066 1.223.141.728.075-.495.073-1.227-.005-1.627-.077-.401-.138.004-.136.899M83.117 58.181c-.306.486-.483.496-1.698.095-1.208-.399-2.085-.314-1.615.156.547.546 3.425.533 3.636-.018.295-.768.103-.907-.323-.233m232.587.078c0 .179.576.325 1.281.325 1.202 0 1.289.066 1.413 1.058.113.917.138.874.183-.325l.052-1.384h-1.465c-.805 0-1.464.147-1.464.326m-69.128 28.227c-.13.13-.997.332-1.926.449-1.371.172-1.047.225 1.729.278 1.88.036 5.2.135 7.379.22 3.874.152 3.958.141 3.786-.514-.201-.772-7.602-1.032-8.943-.314-.48.257-.763.257-1.02 0-.416-.416-.677-.447-1.005-.119m12.472-.156c-.271.884-.163 1.221.39 1.221.533 0 .578-.104.285-.651-.305-.571-.599-.819-.675-.57m2.197.613c-.176.674-.114.688 2.159.492 5.242-.452 11.944-.309 12.581.268.393.356.671.422.812.195.612-.99 1.765-.358 1.891 1.036l.124 1.383.057-1.516.057-1.515-1.871-.175c-1.03-.095-4.238-.174-7.13-.173-3.351 0-5.335-.124-5.47-.344-.43-.695-3.01-.415-3.21.349m-22.003.084-3.068.361-.073 1.79c-.052 1.278.002 1.557.188.977a7.544 7.544 0 0 0 .294-1.68c.031-.847.092-.871 2.754-1.092 1.498-.125 2.926-.356 3.174-.513.248-.157.304-.267.125-.245l-3.394.402m-.837 1.5c-.265.43.124 1.039.511.8.395-.244.393-1.125-.003-1.125-.169 0-.397.146-.508.325m-.915.861c-.479.479-.227 1.466.346 1.356.313-.061.569-.389.569-.729 0-.648-.531-1.011-.915-.627m-8.799 1.336c-.083.134.531.201 1.364.147 2.377-.153 2.666-.312.64-.353-1.019-.021-1.921.072-2.004.206m50.384 12.938c0 7.339.042 10.388.095 6.775a570.71 570.71 0 0 0 0-13.344c-.053-3.727-.095-.771-.095 6.569m-52.224-10.013c-.805.07-1.568.228-1.693.352-.126.123.459.173 1.301.11.842-.063 1.67-.246 1.84-.408.17-.161.244-.268.163-.237-.08.031-.805.114-1.611.183m-1.975 2.201c-.131.911-.245.983-1.684 1.076-1.663.107-2.114.556-2.512 2.504-.159.785-.389.998-1.164 1.085-1.29.146-2.103.933-2.103 2.037 0 1.431-.563 2.574-1.268 2.574-1.283 0-1.662.364-1.662 1.597 0 .661-.183 1.396-.407 1.633-.335.355-.278.364.326.053.573-.295.732-.657.732-1.667 0-1.142.089-1.29.774-1.29.928 0 1.379-.485 1.668-1.792.452-2.049.873-2.765 1.625-2.765 2.454 0 2.855-.305 2.63-2.001l-.21-1.579h1.436c1.613 0 2.285-.544 2.088-1.691-.111-.651-.147-.621-.269.226m-11.62 16.518c-.211.582-.303 1.359-.207 1.727.146.558-.032.721-1.063.977-.841.208-1.278.515-1.361.957-.116.613-.087.619.484.111.335-.297.974-.59 1.422-.651.681-.093.82-.296.857-1.25.025-.626.15-1.542.28-2.034.324-1.233.053-1.126-.412.163m-2.853 22.864c0 8.771.042 12.313.093 7.87.051-4.443.051-11.62 0-15.948-.051-4.329-.093-.693-.093 8.078m51.192-15.542c2.551.055 6.725.055 9.276 0 2.55-.055.463-.1-4.638-.1-5.102 0-7.189.045-4.638.1m-9.791.299c-.12.119-.217.486-.217.814 0 .62-.892 1.686-1.668 1.995-.336.133-.317.184.078.203.856.042 2.241-1.251 2.241-2.093 0-.624.199-.794 1.057-.9l1.058-.132-1.166-.052c-.642-.028-1.264.046-1.383.165m-5.114 3.543c-.231.278-.415.974-.409 1.546.014 1.563-.368 1.846-2.205 1.628-1.426-.169-1.602-.121-1.602.431 0 .493.218.611 1.057.574 1.529-.067 2.523.391 2.523 1.164 0 .716-1.713.988-2.116.336-.302-.489-1.464-.392-1.464.122 0 .246.457.539 1.017.651 2.516.503 3.078.083 2.686-2.008-.166-.884-.086-1.242.348-1.56.422-.308.483-.557.244-.984-.323-.578.046-1.639.749-2.156.209-.153.194-.241-.041-.244-.202-.003-.556.222-.787.5m28.939 28.706c.302.566.676.732 1.654.732.695 0 1.346.183 1.447.407.102.223.149.114.106-.244-.061-.508-.364-.675-1.373-.757-.712-.058-1.504-.278-1.76-.488-.395-.326-.406-.274-.074.35m-98.099 16.029c0 8.503.042 11.981.094 7.73.051-4.252.051-11.209 0-15.46-.052-4.251-.094-.773-.094 7.73m101.07-13.073c0 .225-.524.38-1.29.38-1.577 0-1.986.605-1.911 2.826l.053 1.567.191-1.79.191-1.79 1.355-.098c1.237-.091 2.092-.795 1.582-1.304-.094-.094-.171 0-.171.209m-1.843 2.192c-.108.28-.036.669.159.865.47.469 1.39-.264 1.142-.911-.238-.621-1.056-.592-1.301.046m-1.31 10.393c.001 1.074.062 1.474.135.889.072-.585.071-1.464-.004-1.953-.074-.489-.133-.01-.131 1.064m-.897 13.241c-.494.695-.562.709-.863.184-.528-.921-1.27-.696-1.27.386 0 1.849-.521 2.658-1.476 2.295-1.171-.445-27.004-.43-27.838.016-1.617.865-.211.965 13.647.965 14.939 0 16.154-.12 15.947-1.565-.219-1.528.07-2.45.552-1.762.652.931.923.911 1.597-.119.695-1.06.43-1.418-.296-.4m-96.194 2.836-.813.233.813.299c.448.164 7.789.376 16.315.47l15.5.17v-1.44l-15.501.017c-8.525.01-15.866.123-16.314.251m32.055 49.504c0 26.404.038 37.206.085 24.004.047-13.202.047-34.805 0-48.007-.047-13.202-.085-2.4-.085 24.003m108.304 30.106c.004.716.07.971.148.566.078-.405.075-.991-.006-1.302-.082-.311-.145.02-.142.736M79.74 265.228c0 .33.832.281 1.184-.071.124-.124-.091-.226-.479-.226s-.705.133-.705.297m238.612.435c-.039.795-.17.895-1.164.895-.616 0-1.217.156-1.335.347-.339.55.111.764.655.312.272-.226.797-.331 1.167-.234.768.201 1.081-.327.865-1.459-.129-.677-.148-.663-.188.139M79.74 267.192c0 .17.769.353 1.708.407l1.709.098.097 1.683c.056.966.299 1.848.57 2.074.664.55.587.963-.179.963-.499 0-.651.217-.651.933 0 .977 1.07 1.404 3.255 1.298.606-.029.522-.09-.325-.24-1.068-.189-1.14-.279-1.14-1.444 0-.845-.182-1.345-.569-1.562-.411-.231-.57-.728-.57-1.789 0-2.269-.386-2.729-2.289-2.729-.889 0-1.616.138-1.616.308m232.384 7.601c-.631.521-1.302 1.715-1.302 2.318 0 .288-.411.523-1.058.603-.855.106-.778.14.407.178 1.559.051 2.622-.342 1.987-.735-1.354-.837-.09-2.377 2.089-2.545l1.62-.125-1.628-.049c-.895-.026-1.847.133-2.115.355m-224.03 1.692c.241 1.572-.031 1.349 1.898 1.556l1.627.176-1.546-.351c-1.234-.28-1.547-.488-1.551-1.029-.002-.373-.145-.897-.316-1.166-.212-.332-.248-.073-.112.814m4.827 2.029c1.305.188 2.116.971 2.116 2.042 0 1.317-.498 1.307 60.016 1.223l55.037-.077-57.283-.176c-31.505-.097-57.319-.209-57.364-.249-.044-.04-.081-.411-.081-.825 0-1.156-1.147-2.185-2.372-2.128l-1.045.049.976.141m213.182 0c-1.173.169-2.116.947-2.116 1.745 0 1.077-.747 1.108-31.245 1.286l-30.431.177 30.431-.015c32.816-.016 32.081.023 32.28-1.706.079-.691.301-.939.918-1.021.447-.06.953-.243 1.123-.407.17-.164.243-.276.162-.249-.08.027-.585.112-1.122.19" fill="#dc9494"/><path d="M96.827 44.233c-1.446.172-1.617.274-1.528.913.165 1.191-.498 2.047-1.584 2.047-2.759 0-5.188.767-5.188 1.639 0 1.255-.716 2.001-2.142 2.231-1.172.189-1.284.297-1.381 1.341-.058.625-.395 1.446-.749 1.825-.458.491-.583.932-.433 1.529.116.461.033 1.377-.184 2.036l-.395 1.196-1.752-.206-1.751-.205v2.934h1.644c1.981 0 2.505-.856 2.82-4.61.204-2.432.311-2.583 2.034-2.861 1.018-.164 1.169-.316 1.313-1.321.225-1.574.986-2.522 2.126-2.652.816-.093.981-.268 1.065-1.13.107-1.098.828-1.421 3.177-1.421.594 0 1.17-.146 1.28-.325.111-.179.642-.326 1.18-.326 1.518 0 2.272-.544 2.166-1.562l-.091-.879 101.008-.078c100.635-.079 101.008-.077 101.177.569.093.357.299.649.457.649.158 0 .287.204.287.453 0 .498.684.848 1.654.848.344 0 .625.147.625.326 0 .179.777.325 1.727.325 1.839 0 2.706.43 2.883 1.43.113.643.309.783 2.287 1.642 1.082.469 1.212.659 1.302 1.898.1 1.372.105 1.377 1.565 1.54l1.464.162.237 2.93c.352 4.356.368 4.393 1.847 4.393 1.03 0 1.293.133 1.451.733.424 1.602.232 199.037-.194 200.403-.365 1.171-.516 1.305-1.461 1.305-1.245 0-1.3.146-1.643 4.394l-.237 2.929-1.464.163c-1.464.163-1.465.164-1.566 1.561-.091 1.265-.215 1.446-1.302 1.911-2.019.862-2.173.971-2.29 1.608-.218 1.186-.183 1.174-5.746 1.966-1.654.235-2.534.959-2.116 1.74.515.963.661.958-28.906.973-15.851.008-28.89.086-28.977.173-.24.239 57.457.125 59.508-.119 1.439-.17 1.809-.338 1.905-.862.181-.998.961-1.705 2.106-1.908 3.2-.569 4.78-1.038 4.78-1.422 0-1.524 1.437-2.669 3.366-2.681l1.577-.011-.222-3.01c-.282-3.849.031-4.801 1.58-4.801.983 0 1.14-.121 1.368-1.058.446-1.836.513-202.171.068-204.719l-.384-2.197h-1.21c-1.52 0-1.745-.751-1.414-4.73l.23-2.756-1.747-.01c-2.104-.012-2.854-.512-3.107-2.07-.153-.943-.334-1.174-.921-1.174-.401 0-1.338-.215-2.083-.478-.744-.262-1.889-.445-2.544-.406-1.152.068-1.202.025-1.465-1.267l-.273-1.337-2.186-.207c-2.754-.26-202.418-.178-204.628.084m144.996 42.013c-.269.175-1.558.321-2.864.323-3.077.007-5.51 1.188-3.799 1.844.44.169.436.236-.031.578-.677.495-.492 1.891.266 2 .57.082.622-.124.706-2.789.03-.957 1.729-1.284 6.831-1.316 1.594-.01 3.178-.167 3.519-.35.434-.232.755-.221 1.067.038.322.268.629.274 1.097.023 1.34-.717 8.729-.443 8.932.331.187.716 1.363.781 1.363.076 0-.729.44-.802.798-.132.462.862 1.326.877 1.548.028.19-.724 2.787-.973 3.199-.306.135.22 2.119.344 5.47.344 2.892-.001 6.093.077 7.114.172l1.855.174.128 1.679c.118 1.559.125 1.539.097-.273l-.03-1.953-1.79-.288c-2.58-.414-34.869-.6-35.476-.203m-13.426 4.26c-.39.227-.569.736-.569 1.618v1.285h-1.345c-1.116 0-1.528.195-2.419 1.139-.591.627-1.236 1.14-1.433 1.14-.826 0-2.615 2.253-2.615 3.294 0 1.006-.019 1.02-.63.467-.633-.572-1.323-.458-1.323.219 0 .199-.21.595-.467.879-.257.284-.589 1.247-.738 2.141-.26 1.558-.317 1.629-1.404 1.724-1.633.144-1.947.762-1.947 3.842 0 3.173-.16 3.707-1.112 3.707-2.106 0-2.369 1.316-2.379 11.905l-.006 6.809.249-7.24c.286-8.34.238-8.114 1.791-8.405 1.026-.193 1.157-.319.996-.96-.102-.407.033-1.262.301-1.902.267-.639.485-1.744.485-2.456 0-.711.147-1.383.326-1.494.179-.111.325-.763.325-1.449 0-1.282.365-1.643 1.662-1.643.705 0 1.268-1.143 1.268-2.574 0-1.104.813-1.891 2.103-2.037.775-.087 1.005-.3 1.164-1.085.398-1.948.849-2.397 2.512-2.504l1.544-.099.162-1.465.163-1.465 1.627-.162 1.628-.163.162-1.465.163-1.464 1.79-.191 1.79-.191-1.627-.043c-.895-.024-1.884.106-2.197.288m51.002 12.342c0 6.713.043 9.459.096 6.102.053-3.356.053-8.848 0-12.205-.053-3.356-.096-.61-.096 6.103m-.598 15.297-.208 1.302-1.705.032-1.705.033 1.216.287c1.955.461 2.852-.057 2.852-1.646 0-1.67-.184-1.673-.45-.008m-25.506 1.863c-.858.106-1.057.276-1.057.9 0 1.12-1.436 2.118-3.055 2.124-1.483.005-1.816.168-2.362 1.155-.259.468-.271.853-.04 1.266.256.457.203.666-.229.908-.447.25-.522.591-.368 1.663.282 1.965-.055 2.3-2.05 2.036l-1.66-.221v1.986c0 2.449 1.614 2.977 1.957.64.125-.849.226-.994.396-.569.671 1.665 1.444.512 1.75-2.608.118-1.206.332-2.342.474-2.525.143-.182.307-.988.364-1.79.103-1.454.107-1.458 1.405-1.525 4.135-.214 5.202-.528 5.314-1.56.176-1.616.186-1.618 10.894-1.81l10.155-.183-10.415-.009c-5.728-.005-10.891.049-11.473.122m-59.479 31.33-16.273.167-.044.738c-.036.613-.018.627.104.081.146-.647.373-.656 16.217-.656 10.361 0 16.14-.116 16.27-.325.11-.179.155-.291.1-.249-.055.042-7.424.152-16.374.244m64.931.242c9.892.049 16.695.208 17.087.4.358.176 1.158.36 1.777.41.887.072 1.174.265 1.351.905.22.799.225.8.257.06.092-2.146 1.309-2.021-18.775-1.934l-18.133.078 16.436.081m20.054 3.797c-.171.681-.424.826-1.585.91l-1.382.1-.209 1.953c-.218 2.045-.31 8.049-.115 7.486.063-.179.21-1.599.328-3.156l.214-2.831 1.356-.098 1.355-.099.241-2.417c.247-2.478.158-3.287-.203-1.848m-.743 1.963c.248.647-.672 1.38-1.142.911-.449-.45-.113-1.375.5-1.375.255 0 .544.208.642.464m-2.351 13.856c-.074 6.402-.399 9.605-1.063 10.452l-.609.777-.646-.769-.647-.768-.038 1.094c-.022.601-.024 1.195-.007 1.319.208 1.446-1.002 1.565-16.012 1.565-10.006 0-14.238.103-14 .341.527.527 29.244.277 29.781-.26.223-.224.947-.407 1.608-.407.838 0 1.273-.172 1.438-.569.28-.68.64-14.605.401-15.541-.091-.358-.184.887-.206 2.766m-98.322 12.562c-.003.196.303.635.68.976.785.711 32.313 1.32 32.079.62-.07-.209-5.558-.353-15.379-.404-15.29-.078-16.352-.154-17.136-1.223-.155-.211-.241-.2-.244.031M79.74 264.443c0 .283.295.488.705.488.388 0 .595.11.461.244-.134.134-.415.244-.624.244-.209 0-.426.33-.484.732-.096.677.022.733 1.535.733 1.929 0 2.312.453 2.312 2.733 0 1.126.149 1.555.631 1.812.502.269.593.567.446 1.47-.199 1.229-.142 1.278 1.884 1.613 1.186.196 1.921 1.119 1.921 2.411 0 .583 2.644 1.352 4.645 1.352 1.022 0 2.19 1.136 2.19 2.13 0 .633.225.726 2.197.913 3.119.294 112.693.263 112.693-.032 0-.135-25.154-.245-55.899-.245H98.454l.09-.87c.132-1.277-.294-1.431-6.661-2.409-.89-.137-1.052-.309-1.139-1.207-.086-.89-.245-1.063-1.067-1.156-1.14-.13-1.901-1.078-2.126-2.652-.147-1.023-.285-1.155-1.4-1.335-.68-.11-1.351-.332-1.489-.493-.381-.441-1.069-5.147-.84-5.743.277-.723-.784-1.222-2.596-1.222-1.104 0-1.486.126-1.486.489" fill="#dc8c8c"/></g></svg>